<svg width="30" height="30" viewBox="0 0 30 30" fill="none" xmlns="http://www.w3.org/2000/svg">
<g id="SecretIcon" clip-path="url(#clip0_22_185)">
<path id="Vector" d="M15 0.9375C14.5513 0.9375 14.2768 0.773438 13.9621 0.580078C13.5201 0.316406 12.9911 0 11.7857 0C9.7433 0 8.30357 2.56055 7.36607 5.23828C4.19866 5.74805 2.14286 6.57422 2.14286 7.5C2.14286 8.33789 3.81696 9.08789 6.46875 9.60352C6.44196 9.83789 6.42857 10.0723 6.42857 10.3125C6.42857 11.3086 6.64955 12.2578 7.05134 13.125H3.04018C2.54464 13.125 2.14286 13.4766 2.14286 13.9102C2.14286 14.0098 2.16295 14.1094 2.20982 14.2031L4.80804 19.8809C1.88839 21.7852 0 24.832 0 28.2598C0 29.2207 0.890625 30 1.98884 30H28.0112C29.1094 30 30 29.2207 30 28.2598C30 24.832 28.1116 21.791 25.1987 19.8809L27.7902 14.2031C27.8304 14.1094 27.8571 14.0098 27.8571 13.9102C27.8571 13.4766 27.4554 13.125 26.9598 13.125H22.9487C23.3504 12.2578 23.5714 11.3086 23.5714 10.3125C23.5714 10.0723 23.558 9.83789 23.5312 9.60352C26.183 9.08789 27.8571 8.33789 27.8571 7.5C27.8571 6.57422 25.8013 5.74805 22.6339 5.23828C21.6964 2.56055 20.2567 0 18.2143 0C17.0089 0 16.4799 0.316406 16.0379 0.580078C15.7165 0.773438 15.4487 0.9375 15 0.9375ZM18.75 13.125H17.9196C16.8147 13.125 15.8371 12.5039 15.4888 11.5898C15.3348 11.1797 14.6719 11.1797 14.5179 11.5898C14.1696 12.5039 13.1853 13.125 12.0871 13.125H11.25C9.77009 13.125 8.57143 12.0762 8.57143 10.7812V9.9375C10.4598 10.1777 12.6562 10.3125 15 10.3125C17.3438 10.3125 19.5402 10.1777 21.4286 9.9375V10.7812C21.4286 12.0762 20.2299 13.125 18.75 13.125ZM12.8571 18.75L13.9286 20.625L11.7857 28.125L8.57143 16.875L12.8571 18.75ZM21.4286 16.875L18.2143 28.125L16.0714 20.625L17.1429 18.75L21.4286 16.875Z" fill="#37FF9F"/>
</g>
<defs>
<clipPath id="clip0_22_185">
<rect width="30" height="30" fill="white"/>
</clipPath>
</defs>
</svg>
