<svg width="30" height="30" viewBox="0 0 30 30" fill="none" xmlns="http://www.w3.org/2000/svg">
<g id="CopyLinkIcon">
<g id="Group">
<g id="Vector">
<path d="M7.14282 6.56154V4.73214C7.14282 3.69661 7.98226 2.85715 9.01782 2.85715H25.2678C26.3034 2.85715 27.1428 3.69661 27.1428 4.73214V20.9821C27.1428 22.0177 26.3034 22.8571 25.2678 22.8571H23.4037" fill="black"/>
<path d="M7.14282 6.56154V4.73214C7.14282 3.69661 7.98226 2.85715 9.01782 2.85715H25.2678C26.3034 2.85715 27.1428 3.69661 27.1428 4.73214V20.9821C27.1428 22.0177 26.3034 22.8571 25.2678 22.8571H23.4037" stroke="#00FFD1" stroke-width="2"/>
</g>
<path id="Vector_2" d="M21.5178 6.60715H4.01782C2.98229 6.60715 2.14282 7.44661 2.14282 8.48215V25.9821C2.14282 27.0177 2.98229 27.8571 4.01782 27.8571H21.5178C22.5534 27.8571 23.3928 27.0177 23.3928 25.9821V8.48215C23.3928 7.44661 22.5534 6.60715 21.5178 6.60715Z" fill="black" stroke="#00FFD1" stroke-width="2" stroke-linejoin="round"/>
<path id="Vector_3" d="M11.1675 14.801L14.4753 11.3575C15.3825 10.4502 16.8735 10.4702 17.8055 11.4021C18.7374 12.3341 18.7574 13.8251 17.8501 14.7323L16.6563 15.9966" stroke="white" stroke-width="2" stroke-linecap="round" stroke-linejoin="round"/>
<path id="Vector_4" d="M8.05918 18.3242C7.74024 18.6431 7.08074 19.28 7.08074 19.28C6.17343 20.1872 6.1488 21.8043 7.08074 22.7363C8.01268 23.6682 9.50362 23.6881 10.4109 22.7809L13.6386 19.8506" stroke="white" stroke-width="2" stroke-linecap="round" stroke-linejoin="round"/>
<path id="Vector_5" d="M11.307 18.0624C10.8741 17.6295 10.638 17.076 10.6001 16.5164C10.5565 15.8713 10.7765 15.218 11.2623 14.7322" stroke="white" stroke-width="2" stroke-linecap="round" stroke-linejoin="round"/>
<path id="Vector_6" d="M13.5938 16.5204C14.5257 17.4524 14.5457 18.9434 13.6384 19.8506" stroke="white" stroke-width="2" stroke-linecap="round" stroke-linejoin="round"/>
</g>
</g>
</svg>
